<mxfile host="Electron" modified="2024-04-07T08:50:04.995Z" agent="Mozilla/5.0 (Windows NT 10.0; Win64; x64) AppleWebKit/537.36 (KHTML, like Gecko) draw.io/24.1.0 Chrome/120.0.6099.109 Electron/28.1.0 Safari/537.36" etag="08jDQJK-vVAgzaui_4ap" version="24.1.0" type="device">
  <diagram name="第 1 页" id="W0bvqGzuS5pdnfcN4jff">
    <mxGraphModel dx="1562" dy="917" grid="1" gridSize="10" guides="1" tooltips="1" connect="1" arrows="1" fold="1" page="1" pageScale="1" pageWidth="827" pageHeight="1169" math="0" shadow="0">
      <root>
        <mxCell id="0" />
        <mxCell id="1" parent="0" />
        <mxCell id="mkfxb1LJRzNBglfWxftB-2" value="BPU/NPC" style="rounded=1;whiteSpace=wrap;html=1;fillColor=#dae8fc;strokeColor=#6c8ebf;" vertex="1" parent="1">
          <mxGeometry x="110" y="450" width="80" height="300" as="geometry" />
        </mxCell>
        <mxCell id="mkfxb1LJRzNBglfWxftB-4" value="FAQ&lt;br&gt;(4&lt;span style=&quot;background-color: initial;&quot;&gt;&amp;nbsp;Entry)&lt;/span&gt;" style="rounded=1;whiteSpace=wrap;html=1;fillColor=#e1d5e7;strokeColor=#9673a6;" vertex="1" parent="1">
          <mxGeometry x="190" y="450" width="80" height="300" as="geometry" />
        </mxCell>
        <mxCell id="mkfxb1LJRzNBglfWxftB-8" value="ICache" style="rounded=1;whiteSpace=wrap;html=1;fillColor=#ffe6cc;strokeColor=#d79b00;" vertex="1" parent="1">
          <mxGeometry x="270" y="450" width="90" height="300" as="geometry" />
        </mxCell>
        <mxCell id="mkfxb1LJRzNBglfWxftB-10" value="PreDecoder" style="rounded=1;whiteSpace=wrap;html=1;fillColor=#d5e8d4;strokeColor=#82b366;" vertex="1" parent="1">
          <mxGeometry x="360" y="450" width="90" height="300" as="geometry" />
        </mxCell>
        <mxCell id="mkfxb1LJRzNBglfWxftB-12" value="Instr&lt;br&gt;Buffer&lt;br&gt;(8 Entry)" style="rounded=1;whiteSpace=wrap;html=1;fillColor=#e1d5e7;strokeColor=#9673a6;" vertex="1" parent="1">
          <mxGeometry x="450" y="450" width="90" height="300" as="geometry" />
        </mxCell>
        <mxCell id="mkfxb1LJRzNBglfWxftB-13" value="" style="endArrow=none;dashed=1;html=1;dashPattern=1 3;strokeWidth=2;rounded=1;" edge="1" parent="1">
          <mxGeometry width="50" height="50" relative="1" as="geometry">
            <mxPoint x="149.5" y="870" as="sourcePoint" />
            <mxPoint x="149.5" y="330" as="targetPoint" />
          </mxGeometry>
        </mxCell>
        <mxCell id="mkfxb1LJRzNBglfWxftB-16" value="Decoder&lt;div&gt;(2 Entry)&lt;/div&gt;" style="rounded=1;whiteSpace=wrap;html=1;fillColor=#d5e8d4;strokeColor=#82b366;" vertex="1" parent="1">
          <mxGeometry x="540" y="450" width="70" height="300" as="geometry" />
        </mxCell>
        <mxCell id="mkfxb1LJRzNBglfWxftB-17" value="Schedular" style="rounded=1;whiteSpace=wrap;html=1;fillColor=#dae8fc;strokeColor=#6c8ebf;" vertex="1" parent="1">
          <mxGeometry x="610" y="450" width="90" height="300" as="geometry" />
        </mxCell>
        <mxCell id="mkfxb1LJRzNBglfWxftB-21" value="" style="endArrow=none;dashed=1;html=1;dashPattern=1 3;strokeWidth=2;rounded=1;" edge="1" parent="1">
          <mxGeometry width="50" height="50" relative="1" as="geometry">
            <mxPoint x="229.5" y="870" as="sourcePoint" />
            <mxPoint x="229.5" y="330" as="targetPoint" />
          </mxGeometry>
        </mxCell>
        <mxCell id="mkfxb1LJRzNBglfWxftB-22" value="" style="endArrow=none;dashed=1;html=1;dashPattern=1 3;strokeWidth=2;rounded=1;" edge="1" parent="1">
          <mxGeometry width="50" height="50" relative="1" as="geometry">
            <mxPoint x="314.5" y="870" as="sourcePoint" />
            <mxPoint x="314.5" y="330" as="targetPoint" />
          </mxGeometry>
        </mxCell>
        <mxCell id="mkfxb1LJRzNBglfWxftB-24" value="" style="endArrow=none;dashed=1;html=1;dashPattern=1 3;strokeWidth=2;rounded=1;" edge="1" parent="1">
          <mxGeometry width="50" height="50" relative="1" as="geometry">
            <mxPoint x="494.5" y="870" as="sourcePoint" />
            <mxPoint x="494.5" y="330" as="targetPoint" />
          </mxGeometry>
        </mxCell>
        <mxCell id="mkfxb1LJRzNBglfWxftB-25" value="" style="endArrow=none;dashed=1;html=1;dashPattern=1 3;strokeWidth=2;rounded=1;" edge="1" parent="1">
          <mxGeometry width="50" height="50" relative="1" as="geometry">
            <mxPoint x="630" y="870" as="sourcePoint" />
            <mxPoint x="630" y="330" as="targetPoint" />
          </mxGeometry>
        </mxCell>
      </root>
    </mxGraphModel>
  </diagram>
</mxfile>
